<svg width="97" height="53" viewBox="0 0 97 53" fill="none" xmlns="http://www.w3.org/2000/svg">
<g clip-path="url(#clip0_292_342)">
<path d="M28.3758 0C28.2874 0.895278 28.1384 1.78382 27.9298 2.66007C27.4794 4.54183 26.7567 6.35234 25.7835 8.03777C23.3849 12.1932 19.5808 15.4172 15.0146 17.1648C12.5409 18.1079 9.90611 18.5903 7.24813 18.5873H0V8.03777H7.24813C8.71775 8.03963 10.1707 7.73703 11.5099 7.15039C12.8493 6.56374 14.0442 5.70652 15.0146 4.63581C16.2146 3.32051 17.0361 1.7214 17.3965 0H28.3758Z" fill="#A0EAFA"/>
<path d="M29.3547 38.1254V52.8272C26.0263 52.305 22.819 51.2336 19.8765 49.661C15.3315 47.2406 11.5466 43.7071 8.91251 39.4256C6.2782 35.1442 4.89072 30.2696 4.89258 25.3058V20.5438H19.8765V25.3058C19.8756 28.114 20.7862 30.8539 22.4832 33.1492C24.18 35.4444 26.5804 37.1825 29.3547 38.1254Z" fill="#0043A2"/>
<path d="M49.0932 10.4608H33.416V7.19379H49.0932V10.4608ZM43.0684 23.4082H39.4408V7.19379H43.0684V23.4082Z" fill="black"/>
<path d="M57.0673 23.4065C55.8311 23.4291 54.6037 23.2022 53.4624 22.7401C52.45 22.3234 51.5998 21.6051 51.0342 20.6887C50.4628 19.768 50.177 18.6086 50.177 17.2105C50.1461 16.054 50.4427 14.9114 51.0342 13.9072C51.6017 12.9782 52.4319 12.2272 53.4259 11.7434C54.5349 11.2156 55.7578 10.9535 56.9921 10.9789C58.2011 10.9532 59.4014 11.1813 60.5112 11.6475C61.4794 12.0595 62.2966 12.7463 62.8559 13.6178C63.413 14.4843 63.691 15.5373 63.6895 16.7773C63.6895 16.9855 63.6895 17.1731 63.6659 17.3479C63.6424 17.5229 63.6253 17.7144 63.5931 17.9208H52.5558V16.0462H60.9934L60.1576 17.2147V16.3253C60.1576 15.4201 59.9047 14.7689 59.399 14.3718C58.8931 13.9746 58.0672 13.776 56.9215 13.776C55.6785 13.776 54.8119 14.0101 54.3217 14.478C53.8318 14.9459 53.586 15.6866 53.5845 16.7002V17.6061C53.5845 18.6225 53.8303 19.3654 54.3217 19.8347C54.8133 20.304 55.6878 20.5387 56.945 20.5387C58.0251 20.5387 58.7859 20.3997 59.2275 20.1221C59.4364 20.0038 59.6083 19.8327 59.7249 19.627C59.8415 19.4212 59.8985 19.1885 59.8897 18.9538V18.7162H63.5674V18.9786C63.577 19.8099 63.2918 20.619 62.7593 21.2697C62.1602 21.9778 61.3764 22.5165 60.4898 22.8296C59.3963 23.2292 58.2353 23.4249 57.0673 23.4065Z" fill="black"/>
<path d="M71.3883 23.4062C70.1802 23.4332 68.9826 23.1721 67.8919 22.6439C66.9294 22.1718 66.1258 21.4211 65.5821 20.4863C65.0255 19.4888 64.7457 18.3566 64.7725 17.2102C64.7437 16.0551 65.0235 14.9135 65.5821 13.907C66.1253 12.9703 66.9289 12.2174 67.8919 11.7432C68.9825 11.2143 70.18 10.9525 71.3883 10.9789C72.5304 10.9544 73.6649 11.1736 74.7187 11.6225C75.6108 12.0021 76.3819 12.6258 76.9464 13.4239C77.4852 14.219 77.7642 15.1663 77.7437 16.1314V16.4646H74.2595V16.2731C74.2595 15.5108 74.0013 14.9734 73.4848 14.6652C72.9683 14.357 72.2551 14.2008 71.3268 14.2008C70.2788 14.2008 69.5089 14.4229 69.017 14.8672C68.5252 15.3116 68.2785 16.0905 68.2772 17.2039C68.2772 18.2828 68.5252 19.0513 69.017 19.495C69.5089 19.9385 70.2795 20.1738 71.3268 20.1738C72.249 20.1738 72.9683 20.0191 73.4848 19.7094C74.0013 19.3991 74.2595 18.8639 74.2595 18.0996V17.91H77.7437V18.2432C77.7642 19.2083 77.4852 20.1556 76.9464 20.9507C76.3818 21.7484 75.6107 22.3712 74.7187 22.7502C73.6659 23.2032 72.5313 23.4267 71.3883 23.4062Z" fill="black"/>
<path d="M82.9737 23.4082H79.3662V7.19379H82.9737V23.4082ZM92.8802 23.4082H89.2727V17.0646C89.2727 16.0495 89.0367 15.3355 88.5646 14.9225C88.0926 14.5095 87.2873 14.3043 86.1485 14.3071C85.4977 14.2781 84.8485 14.3936 84.2471 14.6455C83.807 14.8469 83.4561 15.2045 83.2617 15.65C83.0522 16.1882 82.9543 16.7639 82.9737 17.3416H82.4443L82.4926 14.9943H83.165C83.2904 14.3073 83.5435 13.6502 83.9109 13.0575C84.2995 12.4423 84.8433 11.9418 85.4867 11.6069C86.2807 11.2087 87.1613 11.0168 88.0478 11.0486C88.9874 11.0149 89.9182 11.241 90.7393 11.7021C91.4405 12.1151 92.0021 12.7311 92.3508 13.4699C92.7135 14.2577 92.8945 15.1179 92.8802 15.9862V23.4082Z" fill="black"/>
<path d="M43.2429 42.7835H39.6973V26.569H43.2429V42.7835ZM52.6715 42.7835H40.6946V39.5145H52.6715V42.7835Z" fill="black"/>
<path d="M60.6439 42.7818C59.4078 42.8047 58.1805 42.5769 57.04 42.1129C56.0276 41.697 55.1774 40.9788 54.6123 40.0621C54.041 39.1394 53.7552 37.9786 53.7552 36.5795C53.7234 35.4226 54.02 34.2797 54.6123 33.2762C55.1793 32.3485 56.0087 31.599 57.0013 31.117C58.1115 30.589 59.3355 30.3275 60.571 30.3542C61.7793 30.329 62.979 30.5564 64.0892 31.0211C65.055 31.4338 65.8709 32.1193 66.4311 32.9886C67.0123 33.9469 67.3013 35.0463 67.2646 36.1585C67.2646 36.3669 67.2646 36.5566 67.241 36.7316C67.2175 36.9068 67.2002 37.0963 67.1661 37.3027H56.1314V35.4269H64.567L63.7335 36.5754V35.6916C63.7335 34.7872 63.4799 34.1355 62.9729 33.7368C62.4659 33.3381 61.6402 33.1407 60.4961 33.1448C59.2533 33.1448 58.387 33.379 57.897 33.8473C57.4064 34.3181 57.1621 35.0602 57.1621 36.0793V36.9922C57.1621 38.0106 57.407 38.7546 57.897 39.2242C58.387 39.6939 59.2619 39.9225 60.5218 39.9099C61.5987 39.9099 62.3587 39.7752 62.8016 39.5057C63.01 39.3869 63.1816 39.2156 63.2982 39.0097C63.4148 38.8039 63.4718 38.5712 63.4635 38.3363V38.0967H67.1382V38.3594C67.1485 39.1915 66.8624 40.0016 66.3283 40.6519C65.7292 41.36 64.9467 41.8996 64.0613 42.215C62.9688 42.6104 61.8095 42.8028 60.6439 42.7818Z" fill="black"/>
<path d="M72.447 42.7834C71.1686 42.7834 70.1658 42.497 69.439 41.9239C69.0853 41.6499 68.8019 41.2943 68.6126 40.8871C68.4232 40.4799 68.3335 40.0329 68.3507 39.5835C68.3353 39.0348 68.4839 38.4941 68.777 38.0315C69.0971 37.5692 69.5403 37.2076 70.0555 36.9884C70.7332 36.6971 71.4524 36.5162 72.1863 36.4523L77.5073 35.9058V37.9605L73.1629 38.4612C72.8353 38.4654 72.514 38.5515 72.2278 38.7115C72.1297 38.7818 72.0511 38.8762 71.9994 38.9857C71.9476 39.0951 71.9244 39.2162 71.9319 39.3373C71.9231 39.4768 71.9539 39.616 72.0211 39.7384C72.0881 39.8608 72.1886 39.9611 72.3105 40.0278C72.6746 40.192 73.0732 40.2637 73.4711 40.2363C74.1811 40.2535 74.8904 40.1734 75.5792 39.9986C76.0706 39.878 76.513 39.607 76.8452 39.2225C77.1554 38.8084 77.3108 38.2972 77.2839 37.779L77.6148 37.754V39.7836H77.2839C77.0295 40.6888 76.4516 41.4668 75.662 41.9677C74.8454 42.5116 73.7738 42.7834 72.447 42.7834ZM80.7823 42.5434H77.4722V39.7002L77.2839 39.6523V35.4802C77.2839 34.7028 77.09 34.1778 76.7026 33.9053C76.3156 33.6341 75.6495 33.5006 74.7019 33.5006C73.8021 33.5006 73.1546 33.6341 72.7615 33.9053C72.3684 34.1765 72.1697 34.6542 72.1697 35.3384V35.4344H68.5866V35.3613C68.5705 34.4291 68.8438 33.5152 69.3686 32.7476C69.9274 31.9607 70.6945 31.3485 71.5822 30.9807C72.652 30.5393 73.801 30.3262 74.9565 30.3549C76.2819 30.3549 77.375 30.5698 78.2355 30.9994C79.0465 31.3824 79.7175 32.013 80.1533 32.8018C80.5859 33.6452 80.7994 34.5853 80.774 35.5344L80.7823 42.5434Z" fill="black"/>
<path d="M86.5256 46.5668H82.9443V30.5832H86.2629V34.1339L86.5256 34.4419V46.5668ZM91.3877 42.7561C89.9971 42.7561 88.9189 42.4426 88.1526 41.8155C87.379 41.1797 86.8607 40.2872 86.6925 39.3013H86.0669V36.7291H86.5215C86.4959 37.2965 86.6366 37.8591 86.9262 38.3483C87.2068 38.7694 87.6246 39.081 88.1088 39.2307C88.7232 39.4196 89.3642 39.5081 90.0069 39.4929C90.6553 39.5138 91.3021 39.4164 91.9155 39.2056C92.3821 39.0388 92.7725 38.709 93.0147 38.2774C93.2764 37.7449 93.3998 37.1552 93.3734 36.5626C93.404 35.9582 93.2806 35.3561 93.0147 34.8122C92.7704 34.3876 92.3798 34.0659 91.9155 33.907C91.3104 33.7071 90.6752 33.614 90.0383 33.6323C88.8757 33.6323 88.0003 33.8507 87.4122 34.2878C86.824 34.7248 86.5298 35.4749 86.5298 36.5375H86.0752L85.8081 33.8529H86.5006C86.7078 32.7096 87.2057 31.8403 87.9942 31.2452C88.7825 30.6499 89.8762 30.3524 91.2751 30.3524C92.5017 30.3524 93.5403 30.6063 94.3913 31.114C95.2424 31.6214 95.9206 32.3727 96.3374 33.27C96.7746 34.3112 96.9997 35.4286 96.9997 36.5573C96.9997 37.6861 96.7746 38.8036 96.3374 39.8445C95.9314 40.7369 95.2666 41.487 94.429 41.9986C93.5055 42.5283 92.4524 42.7907 91.3877 42.7561Z" fill="black"/>
</g>
<defs>
<clipPath id="clip0_292_342">
<rect width="97" height="52.8272" fill="white"/>
</clipPath>
</defs>
</svg>
