<svg width="17" height="17" viewBox="0 0 17 17" fill="none" xmlns="http://www.w3.org/2000/svg">
<g id="linkedin">
<path id="Vector" d="M3.11395 13.6108V13.9459H3.44899H5.62151H5.62478H5.95982V13.6108V6.61559V6.28055H5.62478H3.44899H3.11395V6.61559V13.6108ZM13.7652 13.9459H14.1002V13.6108V9.77621C14.1002 8.82634 14.0009 7.90815 13.5693 7.22376C13.1154 6.50404 12.3396 6.10714 11.1575 6.10714C10.4259 6.10714 9.83322 6.35535 9.4051 6.69903V6.61559V6.28055H9.07006H6.98588H6.65084V6.61559V13.6108V13.9459H6.98588H9.1584H9.49344V13.6108V10.1492C9.49344 9.69896 9.53937 9.32536 9.67994 9.07065C9.74588 8.95117 9.83106 8.86118 9.94451 8.7984C10.0599 8.73455 10.2244 8.68799 10.4639 8.68799C10.6883 8.68799 10.827 8.73991 10.9175 8.80323C11.0088 8.8671 11.0799 8.96282 11.1338 9.09934C11.2493 9.39156 11.2576 9.78782 11.2576 10.2081V13.6108V13.9459H11.5927H13.7652ZM2.23513 1.38191H14.8024C15.1905 1.38191 15.5143 1.70362 15.5143 2.10369V14.648C15.5143 15.0481 15.1905 15.3698 14.8024 15.3698H2.23513C1.84838 15.3698 1.52645 15.0495 1.52645 14.648V2.10369C1.52645 1.70224 1.84838 1.38191 2.23513 1.38191ZM2.94055 4.40054C2.94055 5.27864 3.65274 5.99524 4.53525 5.99524C5.4172 5.99524 6.12996 5.28248 6.12996 4.40054C6.12996 3.52186 5.41393 2.80583 4.53525 2.80583C3.65274 2.80583 2.94055 3.52243 2.94055 4.40054Z" fill="white" stroke="white" stroke-width="0.670078"/>
</g>
</svg>
